Coordinates
version=1
nRows=7
nColumns=40
inDegrees=yes

Units are S.I. units (second, meters, Newtons, ...)
If the header above contains a line with 'inDegrees', this indicates whether rotational values are in degrees (yes) or radians (no).

endheader
time	pelvis_tilt	pelvis_list	pelvis_rotation	pelvis_tx	pelvis_ty	pelvis_tz	hip_flexion_r	hip_adduction_r	hip_rotation_r	knee_angle_r	knee_angle_r_beta	ankle_angle_r	subtalar_angle_r	mtp_angle_r	hip_flexion_l	hip_adduction_l	hip_rotation_l	knee_angle_l	knee_angle_l_beta	ankle_angle_l	subtalar_angle_l	mtp_angle_l	lumbar_extension	lumbar_bending	lumbar_rotation	arm_flex_r	arm_add_r	arm_rot_r	elbow_flex_r	pro_sup_r	wrist_flex_r	wrist_dev_r	arm_flex_l	arm_add_l	arm_rot_l	elbow_flex_l	pro_sup_l	wrist_flex_l	wrist_dev_l
      5.09999999999999964473	     45.89292741644496231856	     -0.98925776709513668639	   -174.91116073304127098709	      0.38542107145189441475	      0.70825187419508939257	     -0.62171804186041801366	     94.86269808053482677224	    -14.59334204169868876022	      1.01680852092651696772	     59.26295425651047565907	      1.03433367623489602671	     14.26770801095743479436	      0.00000000000000000000	      0.00000000000000000000	     92.54161133275026429601	     -5.11097435758900253688	     -4.46871291890632527100	     54.09498121864741904119	      0.94413553106989211994	      8.58408244033679856955	      0.00000000000000000000	      0.00000000000000000000	    -32.14941962023136312609	      2.68286790658480978067	     -1.78225399128932160409	     68.35792674494625487114	     -9.43178673417797597267	     43.54323632539608013303	      0.99510892718252619282	     86.10599403650768124407	      0.00000000000000000000	      0.00000000000000000000	     61.01987216903734179141	     -2.91886400287137925957	     29.43105790767231155769	      0.72568750748674926143	      3.13943969859756144558	      0.00000000000000000000	      0.00000000000000000000
      5.10500000000000042633	     45.95759216418932879833	     -1.02950709003123863639	   -174.89359168370813790716	      0.38556680687688987819	      0.70999554524190167104	     -0.62157733113828017579	     94.64719805706704391923	    -14.60646948452781579419	      0.98075447716883723537	     58.76484589702018723756	      1.02564004533008290565	     14.04354713420826250569	      0.00000000000000000000	      0.00000000000000000000	     92.26157604742104467732	     -5.03365301580329926878	     -4.56001062496108122701	     53.50958402732388918821	      0.93391842264936930640	      8.36687114283082777888	      0.00000000000000000000	      0.00000000000000000000	    -32.15690520397223650662	      2.63248521543641977871	     -1.82969564640519921639	     68.33115032415469158877	     -9.45052023685700604005	     43.76940441617973220900	      1.01053837245941413592	     86.25361394024730543606	      0.00000000000000000000	      0.00000000000000000000	     61.05292252626029636531	     -2.89655216315600760879	     29.16379956828696862203	      0.72608506821071960857	      3.10359865073825380577	      0.00000000000000000000	      0.00000000000000000000
      5.11000000000000031974	     45.97878848951314267879	     -1.12095258739644143553	   -175.03731815130169024997	      0.38557128611848801025	      0.71170758866160166445	     -0.62173925206434133006	     94.39807005850002497027	    -14.43355359832760598238	      0.99331797249586117893	     58.26947481261063188640	      1.01699418888796144778	     13.79924235652062236568	      0.00000000000000000000	      0.00000000000000000000	     91.97749873737329551204	     -4.99122764149969455616	     -4.47088842429382893329	     52.97413519628299383157	      0.92457307757175088980	      8.14964877032734591467	      0.00000000000000000000	      0.00000000000000000000	    -32.22258401301668584438	      2.44401527514118921403	     -1.71737420120588835104	     68.31280510822175244812	     -9.49700453202255445717	     43.40320654798888710957	      0.99630457595452281971	     86.23115474798267143797	      0.00000000000000000000	      0.00000000000000000000	     61.06700694798921347228	     -2.84477330526084504214	     29.29480411848352616744	      0.72850768949132971297	      3.11063560764213065113	      0.00000000000000000000	      0.00000000000000000000
      5.11500000000000021316	     46.05724884892402570813	     -1.15815894609007630223	   -175.07933199150883751827	      0.38573102538086839752	      0.71352349206834519979	     -0.62173034709650298879	     94.14550607253821112863	    -14.36919775620556194440	      0.95549216405617920511	     57.67465728451262663157	      1.00661266457407738706	     13.56093228624833990636	      0.00000000000000000000	      0.00000000000000000000	     91.71544307770932391577	     -5.00121514350241280766	     -4.60647337907398402024	     52.39033010369979592724	      0.91438375651626369045	      7.85557802791586112789	      0.00000000000000000000	      0.00000000000000000000	    -32.23319017682799625391	      2.35543399974609091174	     -1.69054655167838130403	     68.28672369818616516568	     -9.51394765317985324771	     43.46303015907205491430	      0.99224236806833132629	     86.17229697544844668755	      0.00000000000000000000	      0.00000000000000000000	     61.22197828329866098329	     -2.80122622527291786909	     28.49584393390911429833	      0.73055868030634874000	      3.04670124445919299205	      0.00000000000000000000	      0.00000000000000000000
      5.12000000000000010658	     46.19383029478784408184	     -0.99446010191731881722	   -174.98431379611537295204	      0.38601753381961567690	      0.71529492365455515923	     -0.62161329533605791386	     93.94461580193063809929	    -14.46876769467322709772	      0.65052728398422920986	     57.15527853590007367757	      0.99754779534590032330	     13.28799835201260215456	      0.00000000000000000000	      0.00000000000000000000	     91.53116991028069548975	     -5.03643629397500980360	     -4.74418906794638406410	     51.78998727384318812028	      0.90390579749452582003	      7.51995696147032255396	      0.00000000000000000000	      0.00000000000000000000	    -32.14779178574684692649	      2.53906671247604176500	     -1.64299911902483875004	     68.26031689469300545170	     -9.59047733886429654149	     43.46635805782987915791	      0.99699097139667380851	     86.16426062964595189442	      0.00000000000000000000	      0.00000000000000000000	     61.14475602479569715797	     -2.73669488352372791695	     28.94529064664047979250	      0.72527540414796709545	      3.12830319562148639889	      0.00000000000000000000	      0.00000000000000000000
      5.12500000000000000000	     46.27888842700242122419	     -0.93485966950630472461	   -175.00627799338872137014	      0.38619513646669212381	      0.71700898923981892796	     -0.62166822841249114173	     93.69276923055042516353	    -14.40414195068828462354	      0.53323303006875721888	     56.59268466963140298276	      0.98772868002798741571	     13.03696172435343569873	      0.00000000000000000000	      0.00000000000000000000	     91.33141242371959833690	     -5.02640782245932005168	     -4.74373400738652684083	     51.25903482910116792937	      0.89463892916226428476	      7.20112124880771986568	      0.00000000000000000000	      0.00000000000000000000	    -32.12391735278098536810	      2.55806942358763800272	     -1.55640324376243310844	     68.23159202256567823497	     -9.63900565423643485019	     43.22496715845131376454	      0.98771992933353236488	     86.24414369908633659634	      0.00000000000000000000	      0.00000000000000000000	     61.15061451368793399297	     -2.67002616423570282578	     29.05332906436753859225	      0.72594649115867548872	      3.06022521692403426385	      0.00000000000000000000	      0.00000000000000000000
      5.12999999999999989342	     46.36306831455974020173	     -1.07917248748631156019	   -175.03671444974418136553	      0.38629331846179276733	      0.71880952480346871347	     -0.62157930129640048822	     93.50746978133598474869	    -14.36208968667856211709	      0.62944716930648814124	     56.04954264778619688059	      0.97824906344084960885	     12.73471237384531917769	      0.00000000000000000000	      0.00000000000000000000	     91.01071386731779000456	     -5.00381107149039472404	     -4.98220344099831180529	     50.62824166663742886385	      0.88362951157820457393	      7.04098631866048219052	      0.00000000000000000000	      0.00000000000000000000	    -32.10994519887285747473	      2.37527781572915719366	     -1.59887198872903568692	     68.17491488348552763910	     -9.66886740495151819630	     43.29542007667747327559	      0.98935055427752138790	     86.15586709785215191459	      0.00000000000000000000	      0.00000000000000000000	     61.10557021289668000463	     -2.64430316155200584305	     29.34273956636519642416	      0.72152500923778406516	      3.12481488644554916689	      0.00000000000000000000	      0.00000000000000000000
